<svg width="1500" height="500" viewBox="0 0 1500 500" fill="none" xmlns="http://www.w3.org/2000/svg">
<rect width="1500" height="500" fill="#4D54FF"/>
<path d="M170.19 59L202.531 91.3406L202.53 150.531L143.34 150.531L111 118.19L170.19 118.19V59Z" fill="#1A1C1C"/>
<path d="M170.19 59L111 59L111 118.19L170.19 118.19L170.19 59Z" fill="#FF3A4D"/>
<path d="M347.669 222.668V91.3406L315.328 59V190.328H184L216.341 222.669L347.669 222.668Z" fill="#1A1C1C"/>
<path d="M315.328 59L184 59L184 190.328L315.328 190.328L315.328 59Z" fill="#57EB9F"/>
<path d="M243.19 275.414L275.531 307.755L275.53 366.945L216.34 366.945L184 334.604L243.19 334.604V275.414Z" fill="#1A1C1C"/>
<path d="M243.19 275.414L184 275.414L184 334.604L243.19 334.604L243.19 275.414Z" fill="#FF6F07"/>
<path d="M315.329 203.275L347.669 235.616L347.669 294.806L288.479 294.806L256.139 262.465L315.329 262.465V203.275Z" fill="#1A1C1C"/>
<path d="M315.329 203.275L256.139 203.275L256.139 262.465L315.329 262.465L315.329 203.275Z" fill="white"/>
<path d="M387.465 203.275L419.806 235.616L419.806 294.806L360.616 294.806L328.275 262.465L387.465 262.465V203.275Z" fill="#1A1C1C"/>
<path d="M387.465 203.275L328.275 203.275L328.275 262.465L387.465 262.465L387.465 203.275Z" fill="#FF3A4D"/>
<path d="M387.465 203.275L328.275 203.275L328.275 262.465L387.465 262.465L387.465 203.275Z" fill="#FF3A4D"/>
<path d="M459.602 59L491.943 91.3406L491.943 150.531L432.753 150.531L400.412 118.19L459.602 118.19V59Z" fill="#1A1C1C"/>
<path d="M459.602 59L400.412 59L400.412 118.19L459.602 118.19L459.602 59Z" fill="#9B55FF"/>
<path d="M459.602 131.138L491.943 163.478L491.943 222.668L432.753 222.668L400.412 190.328L459.602 190.328V131.138Z" fill="#1A1C1C"/>
<path d="M459.602 131.138L400.412 131.138L400.412 190.328L459.602 190.328L459.602 131.138Z" fill="#F8DF05"/>
<path d="M315.327 275.414L347.667 307.755L347.667 366.945L288.477 366.945L256.137 334.604L315.327 334.604V275.414Z" fill="#1A1C1C"/>
<path d="M315.327 275.414L256.137 275.414L256.137 334.604L315.327 334.604L315.327 275.414Z" fill="#F8DF05"/>
<path d="M531.739 203.275L564.079 235.616L564.079 294.806L504.889 294.806L472.549 262.465L531.739 262.465V203.275Z" fill="#1A1C1C"/>
<path d="M531.739 203.275L472.549 203.275L472.549 262.465L531.739 262.465L531.739 203.275Z" fill="#00D1FF"/>
<path d="M603.876 203.275L636.216 235.616L636.216 294.806L577.026 294.806L544.686 262.465L603.876 262.465V203.275Z" fill="#1A1C1C"/>
<path d="M603.876 203.275L544.686 203.275L544.686 262.465L603.876 262.465L603.876 203.275Z" fill="#57EB9F"/>
<path d="M564.081 475.083V343.755L531.74 311.414V442.742H400.412L432.753 475.083L564.081 475.083Z" fill="#1A1C1C"/>
<path d="M531.74 311.414L400.412 311.414L400.412 442.742L531.74 442.742L531.74 311.414Z" fill="#FF4DD8"/>
<path d="M932.689 203H873V262.689H932.689V203Z" fill="#57EB9F"/>
<path d="M932.689 203V262.689H873L887.699 277.388H947.387V217.699L932.689 203Z" fill="#1A1C1C"/>
<path d="M897.582 238.493L902.717 223.244L907.965 238.493H897.582ZM907.225 212.094H898.17L883.939 253.599H892.47L895.165 245.788H910.42L913.222 253.599H921.753L907.225 212.094Z" fill="#1A1C1C"/>
<path d="M1096.15 203H1036.46V262.689H1096.15V203Z" fill="white"/>
<path d="M1096.15 203V262.689H1036.46L1051.16 277.388H1110.84V217.699L1096.15 203Z" fill="#1A1C1C"/>
<path d="M1061.09 246.035V212.094H1052.77V253.596H1079.84V246.035H1061.09Z" fill="#040607"/>
<path d="M1170.53 203H1110.85V262.689H1170.53V203Z" fill="white"/>
<path d="M1170.53 203V262.689H1110.85L1125.54 277.388H1185.23V217.699L1170.53 203Z" fill="#1A1C1C"/>
<path d="M1149.29 219.968V245.719C1149.29 245.81 1149.29 245.893 1149.29 245.959C1149.26 245.981 1149.24 246 1149.22 246.016C1149.1 246.022 1148.89 246.032 1148.55 246.032H1132.82C1132.49 246.032 1132.28 246.022 1132.16 246.016C1132.13 246 1132.11 245.981 1132.08 245.959C1132.08 245.889 1132.08 245.81 1132.08 245.719V219.968C1132.08 219.876 1132.08 219.797 1132.08 219.727C1132.11 219.705 1132.13 219.686 1132.16 219.671C1132.28 219.664 1132.48 219.655 1132.82 219.655H1148.55C1148.89 219.655 1149.09 219.661 1149.21 219.671C1149.23 219.686 1149.26 219.705 1149.29 219.727C1149.29 219.797 1149.29 219.876 1149.29 219.968M1155.64 214.688L1154.34 213.61C1153.14 212.606 1151.86 212.094 1150.54 212.094H1130.82C1129.51 212.094 1128.23 212.606 1127.02 213.61L1125.73 214.688C1124.44 215.765 1123.76 217.2 1123.76 218.836V246.853C1123.76 248.493 1124.44 249.928 1125.73 251.002L1127.02 252.079C1128.23 253.087 1129.51 253.596 1130.82 253.596H1150.54C1151.86 253.596 1153.14 253.084 1154.34 252.079L1155.64 251.002C1156.93 249.924 1157.61 248.49 1157.61 246.85V218.836C1157.61 217.2 1156.93 215.765 1155.64 214.688Z" fill="#040607"/>
<path d="M1244.91 203H1185.23V262.689H1244.91V203Z" fill="white"/>
<path d="M1244.91 203V262.689H1185.23L1199.92 277.388H1259.61V217.699L1244.91 203Z" fill="#1A1C1C"/>
<path d="M1230.81 222.887V218.836C1230.81 217.2 1230.13 215.765 1228.84 214.688L1227.55 213.61C1226.34 212.606 1225.06 212.094 1223.75 212.094H1206.4C1205.08 212.094 1203.81 212.606 1202.6 213.61L1201.31 214.688C1200.01 215.765 1199.33 217.2 1199.33 218.836V246.853C1199.33 248.49 1200.01 249.928 1201.31 251.002L1202.6 252.079C1203.8 253.087 1205.08 253.596 1206.4 253.596H1223.75C1225.06 253.596 1226.34 253.084 1227.55 252.079L1228.84 251.002C1230.13 249.924 1230.82 248.49 1230.82 246.85V242.799H1222.5V245.719C1222.5 245.81 1222.5 245.893 1222.5 245.959C1222.47 245.981 1222.44 246 1222.42 246.016C1222.3 246.022 1222.09 246.032 1221.76 246.032H1208.4C1208.06 246.032 1207.85 246.022 1207.73 246.016C1207.71 246 1207.68 245.981 1207.65 245.959C1207.65 245.889 1207.65 245.81 1207.65 245.719V219.968C1207.65 219.876 1207.65 219.797 1207.65 219.727C1207.68 219.705 1207.71 219.686 1207.73 219.671C1207.85 219.664 1208.06 219.655 1208.4 219.655H1221.76C1222.09 219.655 1222.3 219.661 1222.42 219.671C1222.44 219.686 1222.47 219.705 1222.5 219.727C1222.5 219.797 1222.5 219.876 1222.5 219.968V222.887H1230.81Z" fill="#040607"/>
<path d="M1319.3 203H1259.62V262.689H1319.3V203Z" fill="white"/>
<path d="M1319.3 203V262.689H1259.62L1274.31 277.388H1334V217.699L1319.3 203Z" fill="#1A1C1C"/>
<path d="M1303.76 247.191C1303.46 246.591 1302.91 246.104 1301.84 245.51L1301.27 245.198C1300.73 244.897 1300.53 244.752 1300.47 244.708C1300.42 244.651 1300.27 244.452 1299.98 243.953L1293.11 233.08C1293.02 232.944 1292.93 232.805 1292.84 232.666C1292.93 232.521 1293.03 232.372 1293.11 232.227L1299.57 221.791C1299.95 221.2 1300.12 220.991 1300.16 220.944C1300.21 220.903 1300.4 220.764 1300.87 220.502L1301.47 220.173C1302.53 219.588 1303.08 219.105 1303.38 218.502C1303.64 217.98 1303.74 217.304 1303.74 216.091V212.094H1300.66C1299.78 212.094 1299.22 212.151 1298.78 212.286C1298.34 212.422 1297.82 212.707 1297.06 213.234L1296.04 213.933C1295.02 214.625 1294.18 215.528 1293.54 216.622L1285.98 228.796H1283.11V212.094H1274.79V253.599H1283.11V236.36H1285.76L1293.6 249.03C1294.08 249.823 1294.41 250.288 1294.68 250.582C1294.95 250.885 1295.37 251.236 1296.04 251.725L1297.11 252.458C1297.88 252.989 1298.39 253.274 1298.83 253.409C1299.27 253.545 1299.83 253.602 1300.71 253.602H1304.12V249.605C1304.12 248.392 1304.02 247.716 1303.76 247.198" fill="#040607"/>
<path d="M1021.76 203H962.074V262.689H1021.76V203Z" fill="white"/>
<path d="M1021.76 203V262.689H962.074L976.77 277.388H1036.46V217.699L1021.76 203Z" fill="#1A1C1C"/>
<path d="M982.325 212.094H973.984V253.599H982.325V212.094Z" fill="#040607"/>
<path d="M1009.28 246.853V237.156C1009.28 236.233 1009.2 235.636 1009.02 235.152C1008.82 234.628 1008.45 234.135 1007.89 233.639L1006.05 232.138L1007.03 231.389L1007.07 231.355C1008.09 230.524 1008.63 229.383 1008.63 228.053V218.839C1008.63 217.202 1007.95 215.768 1006.66 214.691L1005.37 213.613C1004.16 212.608 1002.88 212.096 1001.57 212.096H986.505V219.661H999.579C999.914 219.661 1000.12 219.667 1000.24 219.676C1000.26 219.692 1000.29 219.711 1000.32 219.733C1000.32 219.803 1000.32 219.882 1000.32 219.973V226.978C1000.32 227.143 1000.32 227.269 1000.32 227.367C1000.27 227.405 1000.22 227.446 1000.16 227.497L998.767 228.625C998.676 228.697 998.606 228.748 998.559 228.783C998.435 228.792 998.217 228.802 997.854 228.802H986.505V236.366H998.77C998.985 236.366 999.134 236.369 999.232 236.375C999.304 236.429 999.412 236.511 999.56 236.638L1000.75 237.608L1000.79 237.642C1000.86 237.696 1000.92 237.74 1000.96 237.778C1000.96 237.86 1000.97 237.958 1000.97 238.078V245.728C1000.97 245.819 1000.97 245.902 1000.97 245.968C1000.93 245.99 1000.91 246.009 1000.89 246.025C1000.77 246.034 1000.56 246.041 1000.22 246.041H986.505V253.605H1002.22C1003.53 253.605 1004.81 253.093 1006.02 252.088L1006.05 252.06C1006.72 251.472 1007.06 251.2 1007.23 251.074L1007.31 251.014C1008.6 249.937 1009.29 248.502 1009.29 246.862" fill="#040607"/>
<path d="M1385.44 364L1413.54 389.867L1413.54 437.209L1362.11 437.209L1334 411.342L1385.44 411.342V364Z" fill="#1A1C1C"/>
<path d="M1385.44 364L1334 364L1334 411.342L1385.44 411.342L1385.44 364Z" fill="#00D1FF"/>
<path d="M1435.65 295L1463.33 322.676L1463.33 373.33L1412.68 373.33L1385 345.654L1435.65 345.654V295Z" fill="#1A1C1C"/>
<path d="M1435.65 295L1385 295L1385 345.654L1435.65 345.654L1435.65 295Z" fill="#F8DF05"/>
</svg>
