<svg width="88" height="88" viewBox="0 0 88 88" fill="none" xmlns="http://www.w3.org/2000/svg">
<rect width="88" height="88" fill="#8993BE"/>
<path d="M61.0476 15.8111H15.811V61.0476H61.0476V15.8111Z" fill="#8993BE"/>
<path d="M61.0475 15.8111V61.0476H15.811L26.949 72.189H72.189V26.9491L61.0475 15.8111Z" fill="#1A1C1C"/>
<path d="M41.5 55.4884C48.9558 55.4884 55 52.3421 55 48.461C55 44.5799 48.9558 41.4336 41.5 41.4336C34.0442 41.4336 28 44.5799 28 48.461C28 52.3421 34.0442 55.4884 41.5 55.4884Z" fill="#1A1C1C"/>
<path fill-rule="evenodd" clip-rule="evenodd" d="M31.791 52.6219L33.2705 45.1322H36.6916C38.171 45.2247 38.9108 45.9643 38.9108 47.2589C38.9108 49.4781 37.154 50.7726 35.582 50.6801H33.9178L33.5479 52.6219H31.791ZM34.2876 49.2932L34.7499 46.5192H35.952C36.5992 46.5192 37.0615 46.7966 37.0615 47.3513C36.9691 48.9234 36.2294 49.2007 35.3972 49.2932H34.2876ZM38.5671 50.6801L40.0465 43.1905H41.8034L41.4335 45.1322H43.0978C44.5773 45.2247 45.1321 45.9643 44.9472 46.8891L44.2999 50.6801H42.4506L43.0979 47.2589C43.1903 46.7966 43.1903 46.5192 42.5431 46.5192H41.1561L40.324 50.6801H38.5671ZM44.1815 52.6219L45.6609 45.1322H49.0821C50.5616 45.2247 51.3014 45.9643 51.3014 47.2589C51.3014 49.4781 49.5445 50.7726 47.9726 50.6801H46.3082L45.9383 52.6219H44.1815ZM46.6779 49.2932L47.1403 46.5192H48.3424C48.9897 46.5192 49.452 46.7966 49.452 47.3513C49.3596 48.9234 48.6198 49.2007 47.7877 49.2932H46.678H46.6779Z" fill="#8993BE"/>
</svg>
